<svg xmlns="http://www.w3.org/2000/svg" width="24" height="24" fill="none" viewBox="0 0 24 24" id="checkout"><path fill="#C4E6FF" d="M7.187 16.9499C7.0091 16.917 6.83636 16.8684 6.6704 16.8054C5.67469 16.4273 4.92313 15.5327 4.76478 14.4243L3.41846 5.00002L8.46917 5L9.48937 12.1414C9.55975 12.6341 9.98167 13 10.4793 13H20.7808L20.3489 14.7277C20.015 16.0632 18.815 17.0001 17.4384 17.0001C14.2038 17.0001 10.9692 17 7.73459 17C7.54797 17 7.3649 16.9828 7.187 16.9499Z"></path><path fill="#024493" d="M4.42033 1.09268C4.25081 1.01394 4.05729 0.981773 3.85846 1.01018C3.31173 1.08828 2.93183 1.59481 3.00993 2.14155L3.87019 8.14351C3.94944 8.69008 4.45677 9.06892 5.00334 8.98966C5.54991 8.91041 5.92874 8.40308 5.84949 7.85651L5.72531 7.00013H19.2191C19.6503 7.00013 19.9999 7.34969 19.9999 7.7809C19.9999 7.84474 19.9921 7.90834 19.9766 7.97027L18.4085 14.2427C18.2972 14.6878 17.8972 15.0001 17.4383 15.0001H8.99988C8.4476 15.0001 7.99988 15.4478 7.99988 16.0001C7.99988 16.5524 8.4476 17.0001 8.99988 17.0001H17.4383C18.8149 17.0001 20.0149 16.0632 20.3488 14.7277L21.9169 8.45534C21.972 8.23477 21.9999 8.00827 21.9999 7.7809C21.9999 6.24512 20.7549 5.00013 19.2191 5.00013H5.43861L4.98983 1.85871C4.94013 1.5108 4.71696 1.23045 4.42033 1.09268Z"></path><path fill="#1E93FF" fill-rule="evenodd" d="M2 1C1.44772 1 1 1.44772 1 2C1 2.55228 1.44772 3 2 3H4C4.55228 3 5 2.55228 5 2C5 1.44772 4.55228 1 4 1H2ZM1 12C1 11.4477 1.44772 11 2 11H8C8.55229 11 9 11.4477 9 12C9 12.5523 8.55229 13 8 13H2C1.44772 13 1 12.5523 1 12ZM2 16C2 15.4477 2.44772 15 3 15H9C9.55229 15 10 15.4477 10 16C10 16.5523 9.55229 17 9 17H3C2.44772 17 2 16.5523 2 16ZM10 21C10 22.1046 9.10457 23 8 23C6.89543 23 6 22.1046 6 21C6 19.8954 6.89543 19 8 19C9.10457 19 10 19.8954 10 21ZM17 23C18.1046 23 19 22.1046 19 21C19 19.8954 18.1046 19 17 19C15.8954 19 15 19.8954 15 21C15 22.1046 15.8954 23 17 23Z" clip-rule="evenodd"></path></svg>